# xmcd
#
# Track frame offsets:
#	150
#	20650
#	42017
#	66747
#	82940
#	104722
#	123877
#	140045
#	156217
#	176420
#	198522
#	217222
#	232407
#	251680
#	267092
#	282190
#
# Disc length: 4008 seconds
#
# Revision: 13
# Processed by: cddbd v1.5.2PL0 Copyright (c) Steve Scherf et al.
# Submitted via: audiograbber 1.83.01
#
DISCID=f90fa610
DTITLE=RED HOT CHILI PEPPERS - TQM - Greatest Hits
DYEAR=2003
DGENRE=Rock
TTITLE0=Under The Bridge
TTITLE1=Give It Away
TTITLE2=Californication
TTITLE3=Scar Tissue
TTITLE4=Soul To Squeeze
TTITLE5=Otherside
TTITLE6=Suck My Kiss
TTITLE7=By The Way
TTITLE8=Parallel Universe
TTITLE9=Breaking The Girl
TTITLE10=My Friends
TTITLE11=Higher Ground
TTITLE12=Universally Speaking
TTITLE13=Road Trippin'
TTITLE14=Fortune Faded
TTITLE15=Save The Population
EXTD=YEAR: 2003
EXTT0=
EXTT1=
EXTT2=
EXTT3=
EXTT4=
EXTT5=
EXTT6=
EXTT7=
EXTT8=
EXTT9=
EXTT10=
EXTT11=
EXTT12=
EXTT13=
EXTT14=
EXTT15=
PLAYORDER=
